<svg width="150" height="150" viewBox="0 0 150 150" fill="none" xmlns="http://www.w3.org/2000/svg">
<g clip-path="url(#clip0_775_105)">
<path d="M0 0H150V150H0V0Z" fill="#AE0218"/>
<path d="M75 30.7617C57.3486 30.7617 38.4524 42.0088 25.7974 53.5137C15.5637 62.8172 8.59365 71.7832 6.20361 75C8.59365 78.2168 15.5637 87.1828 25.7974 96.4863C38.4521 107.991 57.3486 119.238 75 119.238C92.6514 119.238 111.548 107.991 124.203 96.4863C134.436 87.1828 141.406 78.2168 143.796 75C141.406 71.7832 134.436 62.8172 124.203 53.5137C111.548 42.0088 92.6514 30.7617 75 30.7617ZM75 37.5C81.5268 37.5103 87.9379 39.2239 93.5994 42.4714C90.8963 43.4618 88.5624 45.258 86.9127 47.6173C85.2631 49.9765 84.3773 52.7853 84.375 55.6641C84.377 55.7083 84.3793 55.7526 84.3817 55.7968C82.2614 54.754 79.9816 54.073 77.6367 53.782V46.875H72.3633V53.782C62.6853 54.9817 54.9814 62.6854 53.782 72.3633H46.875V77.6367H53.782C54.9817 87.3146 62.6853 95.0186 72.3633 96.218V103.125H77.6367V96.218C87.3146 95.0183 95.0186 87.3146 96.218 77.6367H103.125V72.3633H96.218C96.0939 71.3729 95.9001 70.3925 95.6379 69.4295C96.5588 69.6219 97.4967 69.7214 98.4375 69.7266C100.856 69.723 103.233 69.0957 105.338 67.9053C107.443 66.715 109.206 65.0017 110.456 62.9312C111.794 66.815 112.484 70.8923 112.5 75C112.5 84.9456 108.549 94.4839 101.516 101.517C94.4839 108.549 84.9456 112.5 75 112.5C65.0544 112.5 55.5161 108.549 48.4835 101.517C41.4509 94.4839 37.5 84.9456 37.5 75C37.5 65.0544 41.4509 55.5161 48.4835 48.4835C55.5161 41.4509 65.0544 37.5 75 37.5V37.5ZM72.3633 59.1029V65.625H77.6367V59.1029C84.4444 60.2139 89.7861 65.5556 90.8971 72.3633H84.375V77.6367H90.8971C89.7861 84.4444 84.4444 89.7861 77.6367 90.8971V84.375H72.3633V90.8971C65.5556 89.7861 60.2139 84.4444 59.1029 77.6367H65.625V72.3633H59.1029C60.2139 65.5556 65.5556 60.2139 72.3633 59.1029Z" fill="white"/>
</g>
<defs>
<clipPath id="clip0_775_105">
<rect width="150" height="150" rx="5" fill="white"/>
</clipPath>
</defs>
</svg>
