<svg width="150" height="150" viewBox="0 0 150 150" fill="none" xmlns="http://www.w3.org/2000/svg">
<g clip-path="url(#clip0_775_97)">
<path d="M0 0H150V150H0V0Z" fill="#6F87CD"/>
<path d="M57.0117 5.34961C64.541 13.6289 63.1055 25.957 52.6758 29.2793C38.1445 33.8965 26.5283 24.3135 15.6592 17.4668C18.4893 28.0195 25.5469 42.9492 38.6719 51.4453C30.9082 56.4844 20.7041 58.3887 10.0635 59.7363C21.9844 65.6543 34.0723 71.0742 48.0762 72.0996C36.709 82.7344 26.3262 90.2051 10.708 94.6289C23.5049 98.5547 37.002 99.4336 49.5996 96.0351C38.4668 108.867 32.3145 122.08 28.4912 135.498C38.7305 130.752 47.4023 122.607 62.9297 124.131C62.2852 131.602 64.0723 138.516 69.7559 144.639C72.334 135.322 78.2519 126.826 89.0039 119.473C96.8555 129.814 109.951 136.113 124.775 141.094C118.096 131.25 109.834 121.611 112.529 110.215C114.375 102.627 122.93 95.918 135.908 97.1191C130.547 89.5898 116.045 81.8555 101.221 76.4355C118.535 72.1289 130.928 61.2012 139.922 50.1855C126.064 51.5039 107.988 56.8945 98.4668 47.2266C109.307 36.2109 119.678 23.0859 121.436 10.0078C109.687 17.8916 97.8516 25.21 84.8438 23.3379C79.5703 16.5703 72.832 9.78809 57.0117 5.34961V5.34961ZM90.5273 26.7305L93.3105 41.0742L90.1758 41.6895C90.7617 46.7285 90.4687 53.4375 88.8867 59.7949C87.9785 63.5449 86.5723 67.1777 84.4629 70.1367C83.9648 70.8398 83.3789 71.5137 82.793 72.1582C83.584 72.4805 84.3457 72.8906 85.0781 73.3594C88.1543 75.293 90.791 78.1055 93.0469 81.2402C96.9141 86.5137 99.6973 92.6074 101.074 97.4707L104.18 96.8555L107.021 111.182L59.6484 120.645L57.3633 108.867L56.8652 106.289L60 105.674C59.4141 100.635 59.707 93.9258 61.2891 87.5684C62.1973 83.8184 63.6035 80.1856 65.7129 77.2266C66.2109 76.5234 66.7676 75.8496 67.3535 75.2344C66.5625 74.8828 65.8301 74.4727 65.0977 74.0039C62.0215 72.0703 59.3848 69.2578 57.0996 66.123C53.2617 60.8496 50.4785 54.7559 49.1016 49.8926L45.9668 50.5078L43.6816 38.7598L43.1543 36.1816L90.5273 26.7305ZM86.3672 32.9297L49.3652 40.3418L50.127 44.2969L87.1582 36.9141L86.3672 32.9297ZM84.9316 42.7148L54.3457 48.8379C55.6055 52.9395 58.0664 58.5059 61.377 63.0176C63.3691 65.7715 65.6543 68.1152 67.9102 69.5508C69.2871 70.4004 70.6055 70.957 71.9238 71.1621L73.125 77.2266C71.9531 77.9297 70.957 78.9258 70.0195 80.2734C68.4375 82.4707 67.207 85.5176 66.3867 88.8281C65.0391 94.2773 64.8633 100.371 65.2441 104.648L95.8301 98.5254C94.5703 94.4238 92.1094 88.8574 88.7988 84.3457C86.8066 81.5918 84.5215 79.2481 82.2656 77.8125C80.8887 76.9336 79.5703 76.4063 78.252 76.2012L77.0508 70.1367C78.2227 69.4336 79.2187 68.4375 80.1562 67.0898C81.7383 64.8926 82.9395 61.8457 83.7891 58.5352C85.1367 53.0859 85.2832 46.9922 84.9316 42.7148V42.7148ZM100.049 103.066L63.0176 110.449L63.8086 114.434L100.811 107.021L100.049 103.066Z" fill="white"/>
</g>
<defs>
<clipPath id="clip0_775_97">
<rect width="150" height="150" rx="5" fill="white"/>
</clipPath>
</defs>
</svg>
