<svg width="150" height="150" viewBox="0 0 150 150" fill="none" xmlns="http://www.w3.org/2000/svg">
<g clip-path="url(#clip0_775_73)">
<path d="M0 0H150V150H0V0Z" fill="#3C7123"/>
<path d="M74.0845 7.10449L70.7065 19.6746L112.079 30.7708L115.448 18.201L74.0845 7.10449ZM74.313 26.3124L72.3082 33.7737L66.9249 32.3276C54.3917 28.969 41.4152 36.2815 38.0493 48.8438L23.4375 103.372C20.0713 115.934 27.5742 128.928 40.1367 132.294L82.1596 143.554C94.7221 146.921 107.539 139.343 110.898 126.809L125.51 72.2716C128.868 59.7384 121.481 46.9474 108.948 43.5879V43.5791L103.373 42.0867L105.368 34.6345L100.086 33.215L97.3761 43.3225L96.6709 45.9592L96.7072 45.968C93.8265 54.4313 113.229 74.1539 120.822 64.9201C120.945 66.8572 120.764 68.8567 120.227 70.8615L119.422 73.8557H106.027C108.922 77.8948 110.103 83.3751 108.27 89.4284C105.542 98.439 97.6588 102.694 89.9048 106.457C82.1508 110.221 74.2515 113.723 69.3149 120.511L65.2403 126.123L64.3887 119.238C63.3501 110.871 57.982 104.085 53.0273 97.0274C50.55 93.4989 48.191 89.9112 46.7561 85.904C45.4415 82.2331 44.9733 78.1597 46.0052 73.8554H37.0151L43.3415 50.2529C45.9401 40.5542 55.7868 35.0027 65.5154 37.6099L73.5445 39.7614L76.1813 40.4751L76.8961 37.8296L79.606 27.731L74.3139 26.3118L74.313 26.3124ZM63.7119 64.5082C58.6137 64.6107 53.5438 67.7238 51.5713 74.2494C50.4853 77.8441 50.7756 80.8852 51.9102 84.0545C53.0452 87.2235 55.1118 90.4573 57.5133 93.8777C61.4206 99.4436 66.2227 105.538 68.5822 113.123C74.257 107.641 81.3343 104.527 87.5062 101.532C95.1029 97.8445 101.016 94.5085 103.034 87.8446C105.233 80.5819 102.186 75.844 97.3664 73.4892C92.5471 71.1346 85.9119 71.5936 80.9144 76.5653L77.4261 80.0353L76.3099 75.2379C74.579 67.766 69.467 64.602 64.2062 64.5079C64.0421 64.505 63.8763 64.505 63.7119 64.5079V64.5082Z" fill="white"/>
</g>
<defs>
<clipPath id="clip0_775_73">
<rect width="150" height="150" rx="5" fill="white"/>
</clipPath>
</defs>
</svg>
