<svg width="150" height="150" viewBox="0 0 150 150" fill="none" xmlns="http://www.w3.org/2000/svg">
<g clip-path="url(#clip0_775_129)">
<path d="M0 0H150V150H0V0Z" fill="#4B040E"/>
<path d="M72.3633 9.375V16.1748C41.9678 17.5195 17.5189 41.9678 16.1748 72.3633H9.375V77.6367H16.1748C17.5195 108.032 41.9678 132.481 72.3633 133.825V140.625H77.6367V133.825C108.032 132.48 132.481 108.032 133.825 77.6367H140.625V72.3633H133.825C132.48 41.9678 108.032 17.5189 77.6367 16.1748V9.375H72.3633ZM72.3633 21.4521V37.5H77.6367V21.4521C105.176 22.7812 127.219 44.8242 128.548 72.3633H112.5V77.6367H128.548C127.219 105.176 105.176 127.219 77.6367 128.548V112.5H72.3633V128.548C44.8242 127.219 22.7812 105.176 21.4521 77.6367H37.5V72.3633H21.4521C22.7812 44.8242 44.8242 22.7812 72.3633 21.4521ZM72.3633 65.625V72.3633H65.625V77.6367H72.3633V84.375H77.6367V77.6367H84.375V72.3633H77.6367V65.625H72.3633Z" fill="white"/>
</g>
<defs>
<clipPath id="clip0_775_129">
<rect width="150" height="150" fill="white"/>
</clipPath>
</defs>
</svg>
