<svg width="150" height="150" viewBox="0 0 150 150" fill="none" xmlns="http://www.w3.org/2000/svg">
<g clip-path="url(#clip0_775_113)">
<path d="M0 0H150V150H0V0Z" fill="#234DC9"/>
<path d="M72.3633 5.46562C48.6431 5.46562 29.3335 24.5144 29.3335 48.1292C29.3335 61.4974 33.9501 67.7581 39.0932 75.9158C42.5227 81.3562 46.0562 87.6082 48.0375 96.5886H96.4052C98.3763 87.3932 101.945 81.0261 105.405 75.5314C110.555 67.3518 115.165 61.2018 115.165 48.1295C115.165 24.4986 96.0844 5.46621 72.3636 5.46621L72.3633 5.46562ZM43.1309 42.9381L49.9327 48.9258L61.5234 59.1249L70.6605 49.1273L72.6469 46.9482L74.6704 49.0998L83.6792 58.6857L95.3892 48.8801L102.035 43.3137L99.7928 51.6908L89.2822 90.9023L83.9903 89.4838L92.2579 58.6488L85.2173 64.5448L83.231 66.2018L81.4635 64.3151L72.702 55.0046L63.7482 64.8009L61.9354 66.7872L59.9212 65.0112L53.1097 59.0238L61.2952 89.5564L56.003 90.9662L45.4746 51.6899L43.1309 42.9375V42.9381ZM49.7499 102.063V114.111L92.2852 102.063H49.7496H49.7499ZM94.7479 107.062L49.7496 119.815V128.439L94.7479 115.695V107.061V107.062ZM94.7479 121.381L59.7568 131.296H94.7479V121.38V121.381ZM55.9113 136.77V142.786H89.0994V136.771H55.9119L55.9113 136.77Z" fill="white"/>
</g>
<defs>
<clipPath id="clip0_775_113">
<rect width="150" height="150" rx="5" fill="white"/>
</clipPath>
</defs>
</svg>
