<svg width="150" height="150" viewBox="0 0 150 150" fill="none" xmlns="http://www.w3.org/2000/svg">
<g clip-path="url(#clip0_775_81)">
<path d="M0 0H150V150H0V0Z" fill="#D66400"/>
<path d="M119.606 34.998L108.561 50.2808L114.295 63.2962L124.49 52.3937L119.606 34.9986V34.998ZM144.823 38.664L112.629 73.0951L97.8545 39.5566L75.8344 78.506L50.3613 39.8985L40.5955 73.3327L5.25058 38.915L16.7643 76.2979C17.3341 76.1959 17.9185 76.1397 18.5162 76.1397C24.0275 76.1397 28.5533 80.6666 28.5533 86.1773C28.5533 90.2271 26.1082 93.7424 22.6251 95.3238L24.1887 100.401C27.8288 107.862 45.2423 113.629 75.9217 114.231C108.384 114.868 128.105 109.092 131.543 100.401H131.542L132.819 94.4651C127.886 93.8458 124.024 89.5983 124.024 84.5083C124.024 78.9976 128.55 74.4706 134.062 74.4706C135.091 74.4706 136.086 74.6288 137.024 74.9218L144.823 38.6634V38.664ZM30.0469 39.2616L30.4043 55.7666L37.8926 63.0586L40.7027 53.4369L30.0475 39.2613L30.0469 39.2616ZM74.1636 40.1142L66.9908 55.161L75.4737 68.018L82.7751 55.1039L74.1633 40.1139L74.1636 40.1142ZM134.062 79.9468C131.51 79.9468 129.499 81.9571 129.499 84.5089C129.499 87.0606 131.51 89.0716 134.062 89.0716C136.614 89.0716 138.624 87.0609 138.624 84.5092C138.624 81.9574 136.614 79.9471 134.062 79.9471V79.9468ZM18.5156 81.6152C15.9639 81.6152 13.9532 83.6262 13.9532 86.1779C13.9532 88.7297 15.9636 90.7403 18.5159 90.7403C21.0685 90.7403 23.0783 88.73 23.0783 86.1779C23.0783 83.6262 21.0685 81.6152 18.5162 81.6152H18.5156ZM56.6982 86.8424C62.2096 86.8424 66.7353 91.3687 66.7353 96.8801C66.7353 102.391 62.2096 106.917 56.6982 106.917C51.1866 106.917 46.6605 102.391 46.6605 96.8801C46.6605 91.3693 51.1869 86.8424 56.6977 86.8424H56.6982ZM95.1457 86.8424C100.657 86.8424 105.183 91.3687 105.183 96.8801C105.183 102.391 100.657 106.917 95.1457 106.917C89.6341 106.917 85.108 102.391 85.108 96.8801C85.108 91.3693 89.6344 86.8424 95.1457 86.8424ZM56.6979 92.318C54.1453 92.318 52.1355 94.3277 52.1355 96.8801C52.1355 99.4318 54.1453 101.443 56.6977 101.443C59.2494 101.443 61.2598 99.4318 61.2598 96.8801C61.2598 94.3283 59.25 92.3177 56.6974 92.3177L56.6979 92.318ZM95.1454 92.318C92.5931 92.318 90.583 94.3277 90.583 96.8801C90.583 99.4318 92.5934 101.443 95.1457 101.443C97.698 101.443 99.7084 99.4318 99.7084 96.8801C99.7084 94.3283 97.698 92.3177 95.1457 92.3177L95.1454 92.318Z" fill="white"/>
</g>
<defs>
<clipPath id="clip0_775_81">
<rect width="150" height="150" rx="5" fill="white"/>
</clipPath>
</defs>
</svg>
