<svg width="150" height="150" viewBox="0 0 150 150" fill="none" xmlns="http://www.w3.org/2000/svg">
<g clip-path="url(#clip0_775_89)">
<path d="M0 0H150V150H0V0Z" fill="#0E002A"/>
<path d="M52.6796 6.07031V29.874L39.7793 22.1555L44.925 35.9068L11.0414 29.7727L35.8611 44.3936H5.85938V52.4048L38.2236 56.7627L66.5224 48.2115C63.2109 44.734 61.0749 39.2048 61.0749 32.9771C61.0749 22.452 67.1892 13.916 74.7343 13.916C82.2791 13.916 88.3939 22.452 88.3939 32.9774C88.3939 39.085 86.332 44.5131 83.1293 48.0009L112.142 56.7627L145.101 52.3225V44.3936H115.485L140.305 29.7729L105.021 36.1538L110.257 22.1739L96.0026 30.7069V6.07031H52.6796ZM145.102 65.4325L112.143 72.0059L95.9106 68.1609L87.6987 102.823L92.5597 145.303H107.703L96.46 102.896L110.092 111.053L103.849 94.3726L140.304 100.964L113.608 85.2355H145.102V65.4328L145.102 65.4325ZM5.85938 65.5518V85.2357H37.7382L11.0414 100.964L46.0869 94.6201L39.9448 111.035L51.2153 104.297L42.8379 145.304H56.9458L60.7266 102.996L54.3735 68.1797L38.2236 72.0059L5.85938 65.5518Z" fill="white"/>
</g>
<defs>
<clipPath id="clip0_775_89">
<rect width="150" height="150" rx="5" fill="white"/>
</clipPath>
</defs>
</svg>
