<svg width="150" height="150" viewBox="0 0 150 150" fill="none" xmlns="http://www.w3.org/2000/svg">
<g clip-path="url(#clip0_775_121)">
<path d="M0 0H150V150H0V0Z" fill="#1A1A1A"/>
<path d="M62.0602 11.4434C57.6592 15.9287 57.4037 18.1318 55.1833 24.3056C55.9714 26.9833 56.6933 29.2646 57.8634 31.6641C59.3745 31.747 61.0172 31.8018 62.3581 31.79C60.5681 28.7994 59.9335 26.1299 60.9715 21.4559C62.2312 27.0369 64.7353 30.2429 67.1833 31.5141C68.0716 31.4162 68.9285 31.3049 69.7544 31.1783C67.9219 28.1499 67.2659 25.4742 68.3147 20.7521C69.4564 25.8117 71.6215 28.9189 73.8401 30.4025C75.2048 30.097 76.5598 29.7454 77.9203 29.3672C76.304 26.5283 75.7641 23.891 76.7572 19.4188C77.7407 23.777 79.4839 26.6874 81.3662 28.3591C82.8589 27.8991 84.0896 27.5101 85.4244 27.0855C85.2237 25.3916 85.3025 23.5151 85.7361 21.4854L86.2878 18.9073L91.4449 20.0089L90.8941 22.5882C89.8289 27.571 91.282 29.7425 93.0346 30.9864C94.7865 32.2298 97.3383 32.0001 97.7309 31.7481L99.9504 30.3243L102.798 34.7628C101.668 35.4483 100.484 36.3565 99.3346 36.8312C104.798 44.9399 108.763 54.8385 106.587 64.2384C105.894 67.014 104.821 69.583 103.155 71.5585C106.883 75.1122 109.371 78.0114 112.247 81.6659C111.159 80.9666 110.024 80.2468 108.821 79.5067C105.482 77.453 101.839 75.3425 98.5731 73.7054C93.8821 71.4202 89.3836 68.3719 84.5897 67.6928C77.9827 66.8235 71.0341 69.0981 63.1093 73.8627C65.4155 76.4174 67.0005 78.3961 69.0601 80.9783C67.0151 79.7074 64.7675 78.3211 62.2749 76.8094C52.7376 71.6883 43.1177 62.6804 32.8497 62.1639C23.8966 61.8439 15.2856 66.5452 6.57715 73.4631L5.27344 74.4999V144.727H14.6376C27.8751 139.618 38.1592 127.836 43.0644 117.035L43.1376 116.87L43.2328 116.718C46.0052 112.249 46.4988 108.02 48.1518 103.612C49.8056 99.2051 53.105 94.906 60.4225 92.2582C61.6978 91.6254 61.9078 91.8437 62.9517 92.6669C71.8778 99.7011 79.7358 102.048 87.3384 102.144C96.8921 101.688 104.46 99.2493 112.441 96.4667C111.279 97.5003 109.871 98.579 108.343 99.6196C103.854 102.677 98.3186 105.458 94.7774 106.885C90.4661 107.473 86.4689 107.593 82.4824 107.066C79.5645 110.608 74.99 113.03 71.54 114.88C90.2666 118.988 105.489 115.147 120.579 108.172C117.789 107.64 115.01 107.091 112.378 106.584C121.645 105.289 131.416 105.481 140.123 105.55C141.32 105.544 142.236 105.417 142.672 105.291C146.822 90.3281 141.472 76.611 132.625 62.7469C123.759 48.8528 111.478 35.1765 102.773 20.8406C96.5909 15.7849 88.5343 11.6253 80.061 7.31279C74.0886 8.55791 68.0417 10.0479 62.0602 11.4436V11.4434ZM87.0753 32.0947C83.654 33.1494 80.129 34.27 77.1577 35.0279C77.898 36.4723 78.252 38.1521 78.1523 39.7746C81.3832 40.0315 84.3287 39.1834 86.6382 37.9125C88.0576 37.1314 89.1987 36.1406 89.9821 35.2875C88.853 34.4862 87.8552 33.4096 87.075 32.0941L87.0753 32.0947ZM71.1926 36.4008C67.7473 36.7356 63.9885 37.0928 60.9211 37.0559C61.6213 38.4539 62.0285 40.5911 63.4143 41.4035C66.6896 41.7445 69.4494 41.9886 72.177 40.892C73.7692 39.9504 72.7096 36.4805 71.1926 36.4008V36.4008ZM60.9445 97.7285C55.7903 99.8476 54.3275 102.164 53.0892 105.465C51.9179 108.588 51.2648 112.811 48.847 117.48C58.3069 115.611 69.2449 111.261 76.3427 105.736C71.3572 104.242 66.2197 101.678 60.9451 97.7285H60.9445ZM63.6744 118.642C58.1892 120.762 51.7107 123.372 46.1854 122.762C42.1213 130.863 36.3316 138.876 26.8834 144.727H51.692C58.0096 135.997 62.8444 128.152 63.6744 118.642V118.642Z" fill="white"/>
</g>
<defs>
<clipPath id="clip0_775_121">
<rect width="150" height="150" rx="5" fill="white"/>
</clipPath>
</defs>
</svg>
